<svg width="20" height="20" viewBox="0 0 20 20" fill="none" xmlns="http://www.w3.org/2000/svg">
<circle cx="10" cy="10" r="8.3" stroke="white" stroke-width="0.6"/>
<mask id="mask0_6_3086" style="mask-type:alpha" maskUnits="userSpaceOnUse" x="2" y="2" width="16" height="16">
<circle cx="10" cy="10" r="8" fill="black"/>
</mask>
<g mask="url(#mask0_6_3086)">
<rect width="18" height="18" transform="translate(1 1)" fill="#1B93D1"/>
<path fill-rule="evenodd" clip-rule="evenodd" d="M13.5567 11.8622C14.3991 11.8447 14.5773 11.5347 14.5773 11.1287V10.5654C14.5773 10.3078 14.6977 10.2118 15.0455 10.1898V9.79695C14.6977 9.77948 14.5773 9.69211 14.5773 9.42578V8.86692C14.5773 8.4608 14.3991 8.15516 13.5567 8.13782V8.52633C13.9043 8.55254 14.0648 8.60932 14.0648 8.9106V9.45636C14.0648 9.70522 14.1496 9.91476 14.5462 9.98902V10.0021C14.1496 10.072 14.0648 10.2947 14.0648 10.5393V11.0807C14.0648 11.3819 13.9043 11.4517 13.5567 11.4692V11.8622ZM6.44329 11.8622V11.4692C6.09115 11.4517 5.93076 11.3907 5.93076 11.085V10.548C5.93076 10.299 5.84158 10.0851 5.45378 10.0109V9.99776C5.84158 9.92362 5.93076 9.70958 5.93076 9.46073V8.91496C5.93076 8.61369 6.09115 8.55254 6.44329 8.52633V8.13782C5.60538 8.15516 5.4181 8.4608 5.4181 8.87128V9.43452C5.4181 9.69661 5.3023 9.78384 4.9545 9.80568V10.1987C5.3023 10.216 5.4181 10.3078 5.4181 10.5742V11.1373C5.4181 11.5391 5.60538 11.8447 6.44329 11.8622Z" fill="white"/>
<path fill-rule="evenodd" clip-rule="evenodd" d="M8.02227 10.1104C8.02227 10.2749 7.96286 10.4172 7.84404 10.5369C7.72496 10.6569 7.58175 10.7169 7.41375 10.7169C7.24588 10.7169 7.10083 10.6569 6.97834 10.5369C6.85584 10.4172 6.79486 10.2749 6.79486 10.1104C6.79486 9.94609 6.85584 9.80554 6.97834 9.68914C7.10083 9.57261 7.24588 9.51428 7.41375 9.51428C7.58175 9.51428 7.72496 9.57261 7.84404 9.68914C7.96286 9.80554 8.02227 9.94609 8.02227 10.1104Z" fill="white"/>
<path fill-rule="evenodd" clip-rule="evenodd" d="M10.6137 10.1104C10.6137 10.2749 10.5543 10.4172 10.4355 10.5369C10.3164 10.6569 10.1732 10.7169 10.0052 10.7169C9.83732 10.7169 9.69227 10.6569 9.56978 10.5369C9.44729 10.4172 9.38631 10.2749 9.38631 10.1104C9.38631 9.94609 9.44729 9.80554 9.56978 9.68914C9.69227 9.57261 9.83732 9.51428 10.0052 9.51428C10.1732 9.51428 10.3164 9.57261 10.4355 9.68914C10.5543 9.80554 10.6137 9.94609 10.6137 10.1104Z" fill="white"/>
<path fill-rule="evenodd" clip-rule="evenodd" d="M13.205 10.1104C13.205 10.2749 13.1456 10.4172 13.0268 10.5369C12.9077 10.6569 12.7645 10.7169 12.5965 10.7169C12.4286 10.7169 12.2836 10.6569 12.1611 10.5369C12.0386 10.4172 11.9776 10.2749 11.9776 10.1104C11.9776 9.94609 12.0386 9.80554 12.1611 9.68914C12.2836 9.57261 12.4286 9.51428 12.5965 9.51428C12.7645 9.51428 12.9077 9.57261 13.0268 9.68914C13.1456 9.80554 13.205 9.94609 13.205 10.1104Z" fill="white"/>
</g>
</svg>
