<svg width="20" height="20" viewBox="0 0 20 20" fill="none" xmlns="http://www.w3.org/2000/svg">
<circle cx="10" cy="10" r="8.3" stroke="white" stroke-width="0.6"/>
<mask id="mask0_6_2810" style="mask-type:alpha" maskUnits="userSpaceOnUse" x="2" y="2" width="16" height="16">
<circle cx="10" cy="10" r="8" fill="black"/>
</mask>
<g mask="url(#mask0_6_2810)">
<rect width="18" height="18" transform="translate(1 1)" fill="#2786A2"/>
<path fill-rule="evenodd" clip-rule="evenodd" d="M13.1465 14.8V12.8417H14.2L12.4 10.8L10.6 12.8417H11.6535V14.8H13.1465Z" fill="white"/>
<path fill-rule="evenodd" clip-rule="evenodd" d="M6.85349 10.8V12.8563H5.8L7.6 15L9.4 12.8563H8.34652V10.8H6.85349Z" fill="white"/>
<path d="M9.97978 5.14342L9.89142 5L8.10194 5.31053L8.03244 5.69136L8.16372 5.66418C8.2825 5.63959 8.38186 5.62743 8.46117 5.62743C8.59804 5.62743 8.70878 5.68591 8.80037 5.80828L8.81236 5.82463C8.96147 6.03596 9.1713 6.62603 9.43427 7.58209L9.49004 7.78779L9.33633 7.99478C9.19495 8.1827 9.09261 8.31202 9.03006 8.38192C8.89088 8.53462 8.77717 8.63278 8.69352 8.675C8.63207 8.70735 8.56344 8.72333 8.48506 8.72333C8.43228 8.72333 8.32758 8.68811 8.17973 8.61647C8.05965 8.55943 7.94992 8.53038 7.84946 8.53038C7.66378 8.53038 7.50701 8.59255 7.38449 8.71621C7.26179 8.84006 7.2 8.99884 7.2 9.1869C7.2 9.3654 7.25787 9.51479 7.37308 9.62918C7.48814 9.74341 7.64231 9.8 7.83034 9.8C8.00289 9.8 8.16581 9.76326 8.31814 9.68988C8.46996 9.61674 8.65342 9.46675 8.87212 9.23936L8.9049 9.20494C9.07038 9.02945 9.27991 8.78268 9.53384 8.46432L9.65063 8.31664L9.67345 8.38624C9.78719 8.72973 9.88821 8.98869 9.97711 9.16409C10.0888 9.38445 10.2187 9.54595 10.3682 9.64716C10.5194 9.7495 10.7064 9.8 10.9271 9.8C11.1443 9.8 11.3626 9.72131 11.5809 9.56643C11.8443 9.38283 12.1104 9.07744 12.3805 8.65089L12.4781 8.49432L12.1537 8.30335L12.106 8.37081C11.9204 8.633 11.7831 8.79651 11.7013 8.85635C11.6582 8.88606 11.6042 8.90181 11.5388 8.90181C11.4723 8.90181 11.3987 8.85432 11.3186 8.74927L11.305 8.73069C11.1626 8.52841 10.9688 8.00765 10.7308 7.17915L10.6948 7.05237L10.7456 6.96418C10.9516 6.61166 11.126 6.37911 11.2646 6.26879C11.3704 6.1845 11.4785 6.14357 11.5914 6.14357C11.6278 6.14357 11.7009 6.15759 11.8061 6.18583L11.8423 6.19577C11.9818 6.23479 12.1067 6.25452 12.2174 6.25452C12.3817 6.25452 12.5221 6.19569 12.6333 6.07966C12.7443 5.96376 12.8 5.81428 12.8 5.63659C12.8 5.44939 12.7445 5.29564 12.6328 5.18092C12.5204 5.06556 12.3626 5.00902 12.1649 5.00902C11.9939 5.00902 11.8319 5.05056 11.6802 5.13326C11.5398 5.20985 11.3709 5.36286 11.1701 5.59319L11.1017 5.67324L11.0485 5.73853C10.9284 5.88902 10.7764 6.09832 10.5921 6.36677L10.5277 6.46106L10.5239 6.44599C10.4026 5.97956 10.2212 5.54528 9.97978 5.14342Z" fill="white"/>
</g>
</svg>
